<?xml version="1.0" standalone="no"?>
<!DOCTYPE svg PUBLIC "-//W3C//DTD SVG 20010904//EN"
 "http://www.w3.org/TR/2001/REC-SVG-20010904/DTD/svg10.dtd">
<svg version="1.0" xmlns="http://www.w3.org/2000/svg"
 width="260.000000pt" height="260.000000pt" viewBox="0 0 260.000000 260.000000"
 preserveAspectRatio="xMidYMid meet">
<metadata>
Created by potrace 1.11, written by Peter Selinger 2001-2013
</metadata>
<g transform="translate(0.000000,260.000000) scale(0.100000,-0.100000)"
fill="#000000" stroke="none">
<path d="M590 1301 l0 -821 225 0 225 0 0 295 0 296 57 -3 58 -3 166 -283 c91
-155 170 -287 175 -292 7 -7 106 -9 262 -8 l252 3 -239 354 -239 354 45 29
c169 107 254 293 225 491 -29 201 -142 314 -377 378 -74 21 -108 23 -457 27
l-378 4 0 -821z m635 453 c56 -29 78 -71 77 -145 -2 -124 -67 -180 -214 -187
l-88 -4 0 182 0 182 93 -4 c69 -2 102 -8 132 -24z"/>
</g>
</svg>
