<svg width="241" height="26" xmlns="http://www.w3.org/2000/svg"><g fill="none" fill-rule="evenodd"><path d="M6.687 16.098v9.005H0V.355h8.11c6.726 0 10.09 2.438 10.09 7.313 0 2.866-1.4 5.084-4.199 6.652l7.212 10.783H13.63L8.38 16.098H6.687zm0-5.028H7.94c2.337 0 3.505-1.032 3.505-3.097 0-1.704-1.146-2.556-3.437-2.556h-1.32v5.653zm31.225 14.033V.355h6.722v24.748h-6.722zm37.54-19.619c-1.591 0-2.833.652-3.725 1.955-.891 1.304-1.337 3.1-1.337 5.392 0 4.762 1.811 7.143 5.434 7.143 1.095 0 2.156-.152 3.183-.457a31.847 31.847 0 0 0 3.099-1.1v5.653c-2.066.914-4.402 1.371-7.01 1.371-3.735 0-6.6-1.083-8.592-3.25-1.992-2.166-2.988-5.298-2.988-9.394 0-2.562.483-4.813 1.448-6.754.965-1.941 2.353-3.433 4.165-4.477C70.94.522 73.07 0 75.519 0c2.676 0 5.232.581 7.67 1.743l-2.048 5.265a23.035 23.035 0 0 0-2.743-1.084 9.587 9.587 0 0 0-2.946-.44zm47.14 19.619h-6.722V15.014h-7.771v10.089h-6.721V.355h6.721V9.53h7.77V.355h6.722v24.748zm34.983 0l-1.22-4.638h-8.041l-1.253 4.638h-7.348L147.79.253h8.922l8.177 24.85h-7.313zm-2.608-10.123l-1.066-4.062c-.249-.903-.55-2.07-.906-3.504-.356-1.433-.59-2.46-.703-3.08a68.939 68.939 0 0 1-.6 2.843c-.3 1.32-.963 3.922-1.99 7.803h5.265zm33.73 1.118v9.005h-6.687V.355h8.11c6.727 0 10.09 2.438 10.09 7.313 0 2.866-1.4 5.084-4.198 6.652l7.212 10.783h-7.585l-5.248-9.005h-1.693zm0-5.028h1.254c2.336 0 3.504-1.032 3.504-3.097 0-1.704-1.145-2.556-3.437-2.556h-1.32v5.653zm52.236 1.134c0 4.13-1.137 7.313-3.411 9.547-2.275 2.235-5.472 3.352-9.591 3.352h-8.008V.355h8.566c3.973 0 7.04 1.016 9.202 3.047 2.161 2.032 3.242 4.966 3.242 8.802zm-6.941.237c0-2.268-.449-3.95-1.346-5.044-.898-1.094-2.26-1.642-4.089-1.642h-1.947v13.863h1.49c2.032 0 3.521-.59 4.47-1.768.948-1.18 1.422-2.982 1.422-5.409z" fill="#1F1F1F"/><path fill="#FCFCFC" d="M149.85 14.37l4.921-.287 1.86 7.367-8.603.048z"/></g></svg>