<?xml version="1.0" encoding="UTF-8"?>
<svg width="472px" height="24px" viewBox="0 0 472 24" version="1.1" xmlns="http://www.w3.org/2000/svg" xmlns:xlink="http://www.w3.org/1999/xlink">
    <!-- Generator: Sketch 46.2 (44496) - http://www.bohemiancoding.com/sketch -->
    <title>Group 10</title>
    <desc>Created with Sketch.</desc>
    <defs></defs>
    <g id="Page-1" stroke="none" stroke-width="1" fill="none" fill-rule="evenodd">
        <g id="Desktop-HD-Copy-22" transform="translate(-150.000000, -34.000000)">
            <g id="Group-12">
                <g id="Group-11" transform="translate(150.000000, 34.000000)">
                    <g id="Group-10">
                        <g id="Group-8" transform="translate(239.000000, 0.000000)">
                            <path d="M9.953125,23.203125 L5.28125,6.75 L5.140625,6.75 C5.35937609,9.55209734 5.46875,11.7291589 5.46875,13.28125 L5.46875,23.203125 L0,23.203125 L0,0.359375 L8.21875,0.359375 L12.984375,16.578125 L13.109375,16.578125 L17.78125,0.359375 L26.015625,0.359375 L26.015625,23.203125 L20.34375,23.203125 L20.34375,13.1875 C20.34375,12.6666641 20.3515624,12.0885448 20.3671875,11.453125 C20.3828126,10.8177052 20.4531244,9.26042906 20.578125,6.78125 L20.4375,6.78125 L15.828125,23.203125 L9.953125,23.203125 Z M65.6458302,11.75 C65.6458302,15.5937692 64.7031312,18.515615 62.8177052,20.515625 C60.9322791,22.515635 58.17189,23.515625 54.5364552,23.515625 C50.9531039,23.515625 48.2057355,22.5104267 46.2942677,20.5 C44.3827998,18.4895733 43.4270802,15.5625192 43.4270802,11.71875 C43.4270802,7.91664766 44.3775915,5.01303086 46.2786427,3.0078125 C48.1796938,1.00259414 50.942687,0 54.5677052,0 C58.20314,0 60.9583208,0.994781719 62.8333302,2.984375 C64.7083395,4.97396828 65.6458302,7.89581406 65.6458302,11.75 Z M49.9270802,11.75 C49.9270802,16.1666887 51.4635231,18.375 54.5364552,18.375 C56.098963,18.375 57.2578055,17.838547 58.0130177,16.765625 C58.7682298,15.692703 59.1458302,14.0208447 59.1458302,11.75 C59.1458302,9.46873859 58.7630215,7.78385961 57.9973927,6.6953125 C57.2317638,5.60676539 56.0885461,5.0625 54.5677052,5.0625 C51.4739397,5.0625 49.9270802,7.29164438 49.9270802,11.75 Z M89.2760353,14.890625 L89.2760353,23.203125 L83.1041603,23.203125 L83.1041603,0.359375 L90.5885353,0.359375 C96.7968997,0.359375 99.9010353,2.6093525 99.9010353,7.109375 C99.9010353,9.75522156 98.6093816,11.8020761 96.0260353,13.25 L102.682285,23.203125 L95.6822853,23.203125 L90.8385353,14.890625 L89.2760353,14.890625 Z M89.2760353,10.25 L90.4322853,10.25 C92.5885461,10.25 93.6666603,9.29688453 93.6666603,7.390625 C93.6666603,5.81770047 92.6093792,5.03125 90.4947853,5.03125 L89.2760353,5.03125 L89.2760353,10.25 Z M132.109365,23.203125 L130.984365,18.921875 L123.56249,18.921875 L122.40624,23.203125 L115.62499,23.203125 L123.078115,0.265625 L131.31249,0.265625 L138.859365,23.203125 L132.109365,23.203125 Z M129.703115,13.859375 L128.71874,10.109375 C128.489573,9.2760375 128.21093,8.19792328 127.882803,6.875 C127.554676,5.55207672 127.338533,4.60416953 127.234365,4.03125 C127.140615,4.56250266 126.955721,5.43749391 126.679678,6.65625 C126.403635,7.87500609 125.791662,10.2760238 124.84374,13.859375 L129.703115,13.859375 Z M154.661446,23.203125 L154.661446,0.359375 L160.833321,0.359375 L160.833321,18.21875 L169.630196,18.21875 L169.630196,23.203125 L154.661446,23.203125 Z M200.182276,23.203125 L186.619776,23.203125 L186.619776,0.359375 L200.182276,0.359375 L200.182276,5.3125 L192.791651,5.3125 L192.791651,8.90625 L199.635401,8.90625 L199.635401,13.859375 L192.791651,13.859375 L192.791651,18.171875 L200.182276,18.171875 L200.182276,23.203125 Z M232.453106,16.265625 C232.453106,17.6822988 232.093735,18.9400987 231.374981,20.0390625 C230.656227,21.1380263 229.619779,21.9921845 228.265606,22.6015625 C226.911432,23.2109405 225.322907,23.515625 223.499981,23.515625 C221.97914,23.515625 220.703111,23.4088552 219.671856,23.1953125 C218.640601,22.9817698 217.567695,22.6093777 216.453106,22.078125 L216.453106,16.578125 C217.630195,17.1822947 218.854141,17.6536441 220.124981,17.9921875 C221.395821,18.3307309 222.562476,18.5 223.624981,18.5 C224.541652,18.5 225.21352,18.3411474 225.640606,18.0234375 C226.067691,17.7057276 226.281231,17.2968775 226.281231,16.796875 C226.281231,16.4843734 226.195294,16.2109387 226.023418,15.9765625 C225.851543,15.7421863 225.575504,15.5052095 225.195293,15.265625 C224.815083,15.0260405 223.802072,14.536462 222.156231,13.796875 C220.66664,13.1197883 219.549464,12.4635448 218.804668,11.828125 C218.059873,11.1927052 217.507795,10.4635458 217.148418,9.640625 C216.789042,8.81770422 216.609356,7.84375563 216.609356,6.71875 C216.609356,4.61457281 217.374973,2.97396422 218.906231,1.796875 C220.437489,0.619785781 222.541634,0.03125 225.218731,0.03125 C227.583326,0.03125 229.99476,0.578119531 232.453106,1.671875 L230.562481,6.4375 C228.427054,5.45832844 226.583322,4.96875 225.031231,4.96875 C224.229144,4.96875 223.645816,5.10937359 223.281231,5.390625 C222.916646,5.67187641 222.734356,6.02083125 222.734356,6.4375 C222.734356,6.88541891 222.966124,7.28645656 223.429668,7.640625 C223.893212,7.99479344 225.151012,8.64062031 227.203106,9.578125 C229.171866,10.4635461 230.53904,11.4140574 231.304668,12.4296875 C232.070297,13.4453176 232.453106,14.7239506 232.453106,16.265625 Z" id="MORALES" fill="#DADADA"></path>
                            <polygon id="Path-4-Copy" fill="#FCFCFC" points="124.990724 13.2638798 129.489688 13 131.205265 19.8002707 123.30897 19.8447429"></polygon>
                        </g>
                        <g id="Group-9">
                            <path d="M6.171875,14.859375 L6.171875,23.171875 L0,23.171875 L0,0.328125 L7.484375,0.328125 C13.6927394,0.328125 16.796875,2.5781025 16.796875,7.078125 C16.796875,9.72397156 15.5052213,11.7708261 12.921875,13.21875 L19.578125,23.171875 L12.578125,23.171875 L7.734375,14.859375 L6.171875,14.859375 Z M6.171875,10.21875 L7.328125,10.21875 C9.48438578,10.21875 10.5625,9.26563453 10.5625,7.359375 C10.5625,5.78645047 9.50521891,5 7.390625,5 L6.171875,5 L6.171875,10.21875 Z M34.9895802,23.171875 L34.9895802,0.328125 L41.1927052,0.328125 L41.1927052,23.171875 L34.9895802,23.171875 Z M69.6354103,5.0625 C68.166653,5.0625 67.0208311,5.66405648 66.1979103,6.8671875 C65.3749895,8.07031852 64.9635353,9.72915609 64.9635353,11.84375 C64.9635353,16.2396053 66.6353936,18.4375 69.9791603,18.4375 C70.989582,18.4375 71.9687389,18.2968764 72.9166603,18.015625 C73.8645817,17.7343736 74.8176972,17.3958353 75.7760353,17 L75.7760353,22.21875 C73.8697758,23.0625042 71.7135473,23.484375 69.3072853,23.484375 C65.8593514,23.484375 63.2161487,22.484385 61.3775978,20.484375 C59.5390469,18.484365 58.6197853,15.5937689 58.6197853,11.8125 C58.6197853,9.44790484 59.0650934,7.36980062 59.9557228,5.578125 C60.8463523,3.78644937 62.1275894,2.40885898 63.7994728,1.4453125 C65.4713562,0.481766016 67.4374823,0 69.6979103,0 C72.1666727,0 74.5260241,0.536452969 76.7760353,1.609375 L74.8854103,6.46875 C74.0416561,6.07291469 73.1979145,5.73958469 72.3541603,5.46875 C71.5104061,5.19791531 70.6041652,5.0625 69.6354103,5.0625 Z M113.140615,23.171875 L106.93749,23.171875 L106.93749,13.859375 L99.7656155,13.859375 L99.7656155,23.171875 L93.5624905,23.171875 L93.5624905,0.328125 L99.7656155,0.328125 L99.7656155,8.796875 L106.93749,8.796875 L106.93749,0.328125 L113.140615,0.328125 L113.140615,23.171875 Z M145.427071,23.171875 L144.302071,18.890625 L136.880196,18.890625 L135.723946,23.171875 L128.942696,23.171875 L136.395821,0.234375 L144.630196,0.234375 L152.177071,23.171875 L145.427071,23.171875 Z M143.020821,13.828125 L142.036446,10.078125 C141.807278,9.2447875 141.528635,8.16667328 141.200508,6.84375 C140.872381,5.52082672 140.656238,4.57291953 140.552071,4 C140.45832,4.53125266 140.273426,5.40624391 139.997383,6.625 C139.72134,7.84375609 139.109367,10.2447738 138.161446,13.828125 L143.020821,13.828125 Z M174.151026,14.859375 L174.151026,23.171875 L167.979151,23.171875 L167.979151,0.328125 L175.463526,0.328125 C181.67189,0.328125 184.776026,2.5781025 184.776026,7.078125 C184.776026,9.72397156 183.484372,11.7708261 180.901026,13.21875 L187.557276,23.171875 L180.557276,23.171875 L175.713526,14.859375 L174.151026,14.859375 Z M174.151026,10.21875 L175.307276,10.21875 C177.463537,10.21875 178.541651,9.26563453 178.541651,7.359375 C178.541651,5.78645047 177.48437,5 175.369776,5 L174.151026,5 L174.151026,10.21875 Z M222.359356,11.265625 C222.359356,15.0781441 221.309887,18.0156147 219.210918,20.078125 C217.11195,22.1406353 214.161458,23.171875 210.359356,23.171875 L202.968731,23.171875 L202.968731,0.328125 L210.874981,0.328125 C214.541666,0.328125 217.372367,1.26561563 219.367168,3.140625 C221.36197,5.01563437 222.359356,7.72394062 222.359356,11.265625 Z M215.953106,11.484375 C215.953106,9.39061453 215.539048,7.83854672 214.710918,6.828125 C213.882789,5.81770328 212.624989,5.3125 210.937481,5.3125 L209.140606,5.3125 L209.140606,18.109375 L210.515606,18.109375 C212.390615,18.109375 213.765602,17.5651096 214.640606,16.4765625 C215.51561,15.3880154 215.953106,13.7239695 215.953106,11.484375 Z" id="RICHARD" fill="#1F1F1F"></path>
                            <polygon id="Path-4-Copy-2" fill="#FCFCFC" points="138.298242 13.2638798 142.839887 13 144.555464 19.8002707 136.616488 19.8447429"></polygon>
                        </g>
                    </g>
                </g>
            </g>
        </g>
    </g>
</svg>